<?xml version="1.0" encoding="utf-8"?>
<!-- Generator: Adobe Illustrator 28.1.0, SVG Export Plug-In . SVG Version: 6.00 Build 0)  -->
<svg version="1.1" id="Capa_1" xmlns="http://www.w3.org/2000/svg" xmlns:xlink="http://www.w3.org/1999/xlink" x="0px" y="0px"
	 viewBox="0 0 885.69 250" style="enable-background:new 0 0 885.69 250;" xml:space="preserve">
<style type="text/css">
	.st0{fill:#182A6C;}
</style>
<g>
	<path class="st0" d="M143.57,40.57c-9.75-4.48-26.34-6.85-39.78-6.85c-40.3,0-64.01,25.29-64.01,68.23
		c0,42.94,23.71,68.23,64.01,68.23c16.6,0,31.09-1.84,40.31-4.74l-2.63,34.77c-11.86,2.63-25.29,3.69-40.31,3.69
		C38.2,203.9,0,165.7,0,101.95S38.2,0,101.16,0c14.49,0,28.45,1.58,40.04,4.74L143.57,40.57z"/>
	<path class="st0" d="M173.87,162.54V41.36c0-6.06-0.26-12.38-1.05-18.44h37.41c-0.79,6.06-1.05,12.38-1.05,18.44v121.18
		c0,6.06,0.26,12.38,1.05,18.44h-37.41C173.61,174.92,173.87,168.6,173.87,162.54z"/>
	<path class="st0" d="M246.85,155.69V48.21c0-7.11-0.26-16.86-0.79-25.29h61.91c33.98,0,51.11,15.02,51.11,40.31
		c0,14.23-4.74,23.97-18.44,33.46c18.44,10.8,24.5,23.71,24.5,39.78c0,28.45-19.76,44.52-56.38,44.52h-62.7
		C246.58,173.08,246.85,162.28,246.85,155.69z M282.15,54.53v32.93h25.29c9.75,0,16.86-3.43,16.86-16.07
		c0-11.85-6.06-16.86-20.81-16.86H282.15z M282.15,114.33v35.04h22.13c17.91,0,25.82-5,25.82-17.65c0-13.17-10.01-17.39-22.66-17.39
		H282.15z"/>
	<path class="st0" d="M390.42,169.13V34.77c0-8.17-0.26-21.07-1.05-31.61h94.31l2.37,34.25c-8.96-0.53-21.87-1.05-29.5-1.05h-26.61
		V84.3h23.18c5.79,0,13.43-0.26,18.97-0.53l2.37,32.67c-5.53-0.26-15.54-0.53-21.34-0.53h-23.18v52.16h133.04
		c8.43,0,20.81-0.26,30.56-1.05l-2.37,33.72H389.37C390.16,190.73,390.42,177.29,390.42,169.13z M505.8,108.54V34.77
		c0-8.17-0.26-21.07-1.05-31.61h39.52c-0.79,10.54-1.05,23.45-1.05,31.61v73.23h25.29c8.43,0,20.81-0.26,30.56-1.05l-2.37,33.19
		h-91.94C505.54,130.14,505.8,116.7,505.8,108.54z"/>
	<path class="st0" d="M628.84,148.84V54.53c0-8.17-0.26-21.07-1.05-31.61h96.68l2.37,33.72c-9.75-0.79-22.13-1.05-30.56-1.05h-32.14
		v28.98h19.49c10.54,0,19.76-0.26,28.19-1.05l2.37,33.19c-9.75-0.79-22.13-1.05-30.56-1.05h-19.49v32.67h33.72
		c8.43,0,20.81-0.26,30.56-1.05l-2.37,33.72h-98.26C628.57,170.71,628.84,157.27,628.84,148.84z"/>
	<path class="st0" d="M884.37,3.95l1.32,36.09c-13.7-3.69-20.28-4.74-27.13-4.74c-22.39,0-32.14,13.7-40.83,54.27l-15.81,73.5
		C788.75,223.92,756.34,250,700.76,250c-11.07,0-18.7-0.79-26.87-3.16l-2.11-35.3c7.9,1.84,17.12,2.64,31.08,2.64
		c33.98,0,50.84-15.28,60.33-59.54L779,81.14C791.38,23.97,814.83,0,856.71,0C863.56,0,871.2,0.79,884.37,3.95z"/>
</g>
</svg>
